<?xml version="1.0" encoding="UTF-8" standalone="no"?>
<svg
   xmlns:osb="http://www.openswatchbook.org/uri/2009/osb"
   xmlns:dc="http://purl.org/dc/elements/1.1/"
   xmlns:cc="http://creativecommons.org/ns#"
   xmlns:rdf="http://www.w3.org/1999/02/22-rdf-syntax-ns#"
   xmlns:svg="http://www.w3.org/2000/svg"
   xmlns="http://www.w3.org/2000/svg"
   xmlns:xlink="http://www.w3.org/1999/xlink"
   xmlns:sodipodi="http://sodipodi.sourceforge.net/DTD/sodipodi-0.dtd"
   xmlns:inkscape="http://www.inkscape.org/namespaces/inkscape"
   class="w-6 h-6 text-gray-800 dark:text-white"
   aria-hidden="true"
   fill="currentColor"
   viewBox="0 0 24 24"
   version="1.1"
   id="svg4"
   sodipodi:docname="sortLinkDown.svg"
   inkscape:version="1.0.2-2 (e86c870879, 2021-01-15)">
  <metadata
     id="metadata10">
    <rdf:RDF>
      <cc:Work
         rdf:about="">
        <dc:format>image/svg+xml</dc:format>
        <dc:type
           rdf:resource="http://purl.org/dc/dcmitype/StillImage" />
        <dc:title></dc:title>
      </cc:Work>
    </rdf:RDF>
  </metadata>
  <defs
     id="defs8">
    <linearGradient
       inkscape:collect="always"
       id="linearGradient2795">
      <stop
         style="stop-color:#000000;stop-opacity:1;"
         offset="0"
         id="stop2791" />
      <stop
         style="stop-color:#000000;stop-opacity:0;"
         offset="1"
         id="stop2793" />
    </linearGradient>
    <linearGradient
       id="linearGradient2787"
       osb:paint="solid">
      <stop
         style="stop-color:#000000;stop-opacity:1;"
         offset="0"
         id="stop2785" />
    </linearGradient>
    <linearGradient
       inkscape:collect="always"
       xlink:href="#linearGradient2795"
       id="linearGradient2801"
       x1="6.098762"
       y1="11.998646"
       x2="17.901237"
       y2="11.998646"
       gradientUnits="userSpaceOnUse" />
  </defs>
  <sodipodi:namedview
     pagecolor="#ffffff"
     bordercolor="#666666"
     borderopacity="1"
     objecttolerance="10"
     gridtolerance="10"
     guidetolerance="10"
     inkscape:pageopacity="0"
     inkscape:pageshadow="2"
     inkscape:window-width="1920"
     inkscape:window-height="1017"
     id="namedview6"
     showgrid="false"
     inkscape:zoom="35.416667"
     inkscape:cx="9.6938648"
     inkscape:cy="12.36319"
     inkscape:window-x="-8"
     inkscape:window-y="-8"
     inkscape:window-maximized="1"
     inkscape:current-layer="svg4" />
  <path
     d="M8.574 11.024h6.852a2.075 2.075 0 0 0 1.847-1.086 1.9 1.9 0 0 0-.11-1.986L13.736 2.9a2.122 2.122 0 0 0-3.472 0L6.837 7.952a1.9 1.9 0 0 0-.11 1.986 2.074 2.074 0 0 0 1.847 1.086Zm6.852 1.952H8.574a2.072 2.072 0 0 0-1.847 1.087 1.9 1.9 0 0 0 .11 1.985l3.426 5.05a2.123 2.123 0 0 0 3.472 0l3.427-5.05a1.9 1.9 0 0 0 .11-1.985 2.074 2.074 0 0 0-1.846-1.087Z"
     id="path2"
     style="opacity:1;stroke-width:0.8;stroke-miterlimit:4;stroke-dasharray:none;stroke:url(#linearGradient2801);stroke-opacity:1" />
  <path
     sodipodi:type="star"
     style="opacity:1;fill:#ffffff;fill-rule:evenodd;stroke:#000000;stroke-width:0.975397;stroke-linejoin:round;stroke-miterlimit:4;stroke-dasharray:none;stroke-dashoffset:1.88976;stroke-opacity:1"
     id="path2803"
     sodipodi:sides="3"
     sodipodi:cx="11.922597"
     sodipodi:cy="7.5168665"
     sodipodi:r1="5.0428772"
     sodipodi:r2="2.5214386"
     sodipodi:arg1="0.52168633"
     sodipodi:arg2="1.5688839"
     inkscape:flatsided="true"
     inkscape:rounded="0.1"
     inkscape:randomized="0"
     d="m 16.294671,10.029949 c -0.435279,0.757265 -8.2963319,0.772299 -8.7345037,0.0167 -0.4381718,-0.7555952 3.4793347,-7.5709839 4.3527857,-7.5726543 0.87345,-0.00167 4.816996,6.7986844 4.381718,7.5559503 z"
     inkscape:transform-center-x="-0.0045033817"
     inkscape:transform-center-y="-0.9770244" />
</svg>
